<svg id="Layer_2" height="512" viewBox="0 0 128 128" width="512" xmlns="http://www.w3.org/2000/svg" data-name="Layer 2"><path d="m121.459 16.44-11.68-11.679a16.269 16.269 0 0 0 -22.985 0l-9.343 9.339a8.221 8.221 0 0 0 -10.9 12.271l5.149 5.158-4.851 4.853a6.591 6.591 0 0 0 0 9.311l.552.553-63.822 63.825a6.151 6.151 0 0 0 0 8.687l3.883 3.883a6.149 6.149 0 0 0 8.686 0l3.713-3.713 7.594 7.595a5.052 5.052 0 0 0 7.134 0l4.347-4.346a1.751 1.751 0 0 0 0-2.475l-4.344-4.344 4.708-4.708 4.343 4.344a1.748 1.748 0 0 0 2.474 0l4.347-4.347a5.044 5.044 0 0 0 0-7.133l-7.595-7.595 37.105-37.1.552.553a6.589 6.589 0 0 0 9.312 0l4.851-4.851 5.156 5.154a8.221 8.221 0 0 0 12.271-10.9l9.343-9.343a16.272 16.272 0 0 0 0-22.992zm-73.47 89.549a1.545 1.545 0 0 1 0 2.184l-3.109 3.109-4.343-4.344a1.752 1.752 0 0 0 -2.475 0l-7.182 7.182a1.749 1.749 0 0 0 0 2.475l4.344 4.343-3.11 3.11a1.548 1.548 0 0 1 -2.184 0l-7.595-7.594 18.065-18.06zm-8.832-11.307-20.534 20.534-4.949 4.949a2.646 2.646 0 0 1 -3.737 0l-3.883-3.883a2.645 2.645 0 0 1 0-3.737l63.826-63.824 7.62 7.619zm69.287-47.191a1.751 1.751 0 0 0 0 2.474l.553.554a4.721 4.721 0 1 1 -6.677 6.676l-6.393-6.395a1.749 1.749 0 0 0 -2.475 0l-6.089 6.089a3.087 3.087 0 0 1 -4.362 0l-1.79-1.79-.284-.285 5.885-5.884a1.75 1.75 0 0 0 -2.475-2.475l-5.885 5.885-4.576-4.576 5.885-5.885a1.75 1.75 0 1 0 -2.475-2.475l-5.886 5.889-.284-.284-1.79-1.79a3.09 3.09 0 0 1 0-4.363l6.089-6.089a1.749 1.749 0 0 0 0-2.475l-6.391-6.392a4.721 4.721 0 1 1 6.676-6.675l.553.551a1.75 1.75 0 0 0 2.474 0l10.54-10.54a12.754 12.754 0 0 1 18.036 0l11.679 11.68a12.752 12.752 0 0 1 0 18.036z"/><path d="m96 17.617a9.853 9.853 0 0 0 -3.99-2.744 5.079 5.079 0 0 0 -5.213 1.639 8.633 8.633 0 0 0 -2.559 5.457 6.882 6.882 0 0 0 1.953 5.457 6.812 6.812 0 0 0 4.889 1.974c.187 0 .375-.006.566-.02a8.635 8.635 0 0 0 5.454-2.56c4.05-4.049.306-7.794-1.1-9.203zm-1.369 6.729a5.138 5.138 0 0 1 -3.231 1.542 3.285 3.285 0 0 1 -3.668-3.668 5.133 5.133 0 0 1 1.542-3.234 2.132 2.132 0 0 1 1.428-.807 1.17 1.17 0 0 1 .337.055 7.379 7.379 0 0 1 2.488 1.858c2.555 2.559 2.135 3.22 1.101 4.254z"/><path d="m108.6 30.223c-1.411-1.41-5.154-5.156-9.2-1.106a8.634 8.634 0 0 0 -2.558 5.457 6.762 6.762 0 0 0 6.845 7.431c.186 0 .375-.007.565-.021a8.627 8.627 0 0 0 5.457-2.558 5.078 5.078 0 0 0 1.639-5.213 9.862 9.862 0 0 0 -2.748-3.99zm-1.37 6.728c-1.812 1.81-4.487 2.083-5.964.606s-1.207-4.154.6-5.965c1.035-1.032 1.691-1.457 4.254 1.105a7.355 7.355 0 0 1 1.857 2.489c.082.254.236.786-.744 1.765z"/><path d="m89.518 34.637a1.75 1.75 0 1 0 -2.475 2.474l2.065 2.066a1.75 1.75 0 0 0 2.475-2.477z"/></svg>